<svg width="36" height="36" viewBox="0 0 36 36" fill="none" xmlns="http://www.w3.org/2000/svg">
<rect width="36" height="36" rx="8" fill="#6C58DC"/>
<path fill-rule="evenodd" clip-rule="evenodd" d="M31.2762 10.3905C31.7969 10.9112 31.7969 11.7554 31.2762 12.2762L20.6095 22.9428C20.0888 23.4635 19.2446 23.4635 18.7239 22.9428L14.8048 19.0238C14.5444 18.7634 14.1223 18.7634 13.862 19.0238L7.27615 25.6095C6.75544 26.1302 5.91123 26.1302 5.39052 25.6095C4.86983 25.0888 4.86983 24.2446 5.39052 23.7239L13.3905 15.7239C13.9112 15.2032 14.7555 15.2032 15.2762 15.7239L19.1952 19.643C19.4556 19.9034 19.8778 19.9034 20.1382 19.643L29.3906 10.3905C29.9112 9.86983 30.7555 9.86983 31.2762 10.3905Z" fill="white"/>
<path fill-rule="evenodd" clip-rule="evenodd" d="M23.667 11.3333C23.667 10.597 24.2639 10 25.0003 10H30.3337C31.0701 10 31.667 10.597 31.667 11.3333V16.6667C31.667 17.4031 31.0701 18 30.3337 18C29.5973 18 29.0003 17.4031 29.0003 16.6667V13.3333C29.0003 12.9652 28.7018 12.6667 28.3337 12.6667H25.0003C24.2639 12.6667 23.667 12.0697 23.667 11.3333Z" fill="white"/>
</svg>
